<svg width="180" height="180" viewBox="0 0 180 180" fill="none" xmlns="http://www.w3.org/2000/svg">
<g clip-path="url(#clip0_45_118)">
<path d="M83.8235 3.52943C81.2647 5.11768 72.6176 8.82356 71.6471 8.82356C71.0294 8.82356 70.5882 9.1765 70.5882 9.70592C70.5882 10.1471 69.9706 10.5883 69.1765 10.5883C68.4706 10.5883 64.7647 12 61.0588 13.7647C57.3529 15.4412 53.4706 17.2059 52.5 17.5589C51.5294 18 48.3529 19.4118 45.4412 20.9118C37.9412 24.6177 36.7059 27.2647 36.3529 41.2059C36.1765 47.2059 35.9118 52.0588 35.8235 52.0588C35.7353 52.0588 33.9706 51.2647 31.9412 50.2941C27.0882 47.9118 26.2059 48 22.7647 51.4412C19.7647 54.353 19.2353 55.0588 14.5588 61.3236C11.1176 65.8236 10.5 66.7059 6.61764 71.4706C4.7647 73.5883 2.99999 76.3236 2.55882 77.3824C2.11764 78.5294 1.41176 79.4118 0.882347 79.4118C-0.705888 79.4118 -5.61029e-06 81.7941 2.38235 84.6177C3.70588 86.1177 5.11764 87.353 5.47058 87.353C6.52941 87.353 16.1471 93.7941 17.3823 95.2941C18.1765 96.2647 18.4412 101.824 18.5294 114.529V132.353L20.9118 135C22.1471 136.5 23.5588 137.647 24 137.647C24.9706 137.647 34.7647 144.088 35.1176 144.882C35.2941 145.324 35.8235 145.588 36.3529 145.588C36.8823 145.588 39.7941 147.353 42.8823 149.559C45.8823 151.765 48.7941 153.529 49.3235 153.529C49.8529 153.529 50.2941 153.882 50.2941 154.412C50.2941 154.853 50.7353 155.294 51.2647 155.294C51.7941 155.294 54.7059 157.059 57.7059 159.265C60.7941 161.471 63.5294 163.235 63.8824 163.235C64.1471 163.235 66.3529 164.647 68.7353 166.324C71.0294 168 73.4118 169.412 74.0294 169.412C74.5588 169.412 75 169.765 75 170.206C75 170.647 75.7059 171.265 76.5882 171.529C77.4706 171.882 78.9706 172.765 79.9412 173.647C80.8235 174.441 82.8529 175.765 84.2647 176.471C85.7647 177.176 87.6176 178.324 88.5 179.029C89.8235 180.088 90.1765 180.088 91.5882 179.029C92.3824 178.324 94.3235 177.176 95.7353 176.471C97.2353 175.765 98.5588 174.971 98.8235 174.706C99.0882 174.441 102.618 172.059 106.765 169.412C110.912 166.765 114.441 164.294 114.529 163.853C114.706 163.5 115.235 163.235 115.765 163.235C116.206 163.235 119.735 161.029 123.529 158.382C127.324 155.735 130.853 153.529 131.382 153.529C131.912 153.529 132.353 153.088 132.353 152.647C132.353 152.118 132.706 151.765 133.235 151.765C133.676 151.765 136.059 150.353 138.441 148.676C140.735 147 143.118 145.588 143.735 145.588C144.265 145.588 144.706 145.235 144.706 144.794C144.706 144.353 145.412 143.735 146.294 143.471C147.176 143.118 148.676 142.235 149.647 141.353C150.529 140.559 152.471 139.235 153.882 138.529C155.294 137.824 157.588 136.059 159 134.735L161.471 132.176V114.176C161.471 99.6177 161.735 95.8236 162.706 94.7647C163.412 94.0588 164.294 93.5294 164.647 93.5294C165 93.5294 166.588 92.5588 168.176 91.3236C169.765 90.0883 171.441 89.1177 171.971 89.1177C172.5 89.1177 172.941 88.6765 172.941 88.2353C172.941 87.7059 173.471 87.353 174.088 87.353C175.5 87.353 180 82.3236 180 80.7353C180 80.1177 179.382 79.1471 178.676 78.5294C177.971 77.9118 177.353 76.9412 177.353 76.3236C177.353 75.6177 177 75 176.647 74.8236C176.029 74.6471 168.088 64.6765 161.471 56.0294C156.794 49.9412 151.235 46.7647 149.647 49.3236C149.382 49.7647 148.059 50.3824 146.824 50.6471C143.647 51.4412 142.941 50.2059 142.941 43.4118C142.941 37.9412 142.324 36.9706 140.118 39C139.5 39.6177 137.824 40.7647 136.324 41.4706C134.912 42.1765 133.5 42.9706 133.235 43.2353C132.353 44.1177 125.294 48.5294 124.765 48.5294C124.412 48.5294 122.824 49.5 121.235 50.7353C119.647 51.9706 118.147 52.9412 117.882 52.9412C117.618 52.9412 114.618 54.7059 111.176 56.9118C107.735 59.1177 104.559 60.8824 104.118 60.8824C103.588 60.8824 103.235 61.2353 103.235 61.5883C103.235 62.0294 101.824 62.8236 100.147 63.5294C98.4706 64.2353 97.0588 65.0294 97.0588 65.3824C97.0588 65.7353 96.0882 66.2647 94.8529 66.5294C92.6471 67.0588 87.6176 65.1177 77.9118 59.6471C72.1765 56.4706 71.4706 55.6765 71.4706 52.0588C71.4706 49.4118 72 48.2647 73.7647 46.853C76.9412 44.3824 78.4412 44.4706 85.2353 48.0883C91.8529 51.6177 93.9706 51.8824 97.0588 49.4118C98.2941 48.4412 99.6176 47.6471 100.059 47.6471C100.5 47.6471 101.559 47.1177 102.265 46.4118C103.059 45.7059 105.088 44.3824 106.853 43.4118C113.294 39.7941 114.265 39.2647 114.706 38.7353C114.971 38.4706 116.559 37.5 118.235 36.5294C119.912 35.6471 121.5 34.6765 121.765 34.4118C122.029 34.1471 123.706 33.1765 125.559 32.2059C127.324 31.2353 128.824 30.2647 128.824 30C128.824 29.7353 130.147 29.0294 131.735 28.3236C133.235 27.6177 134.735 26.8236 135 26.5589C135.265 26.2941 136.235 25.5883 137.118 25.0589C139.147 24 140.029 22.0589 138.618 22.0589C138.088 22.0589 135.706 21.2647 133.412 20.2059C131.118 19.1471 128.471 18 127.5 17.6471C126.529 17.2059 122.559 15.4412 118.676 13.6765C114.794 11.8236 110.824 10.0589 109.853 9.70592C107.824 8.91179 98.2941 4.58826 96 3.44121C93.9706 2.38239 85.5882 2.47061 83.8235 3.52943ZM40.7647 69.8824C46.2353 73.4118 50.9118 76.5883 51 76.9412C51.1765 77.3824 51.7059 77.6471 52.1471 77.6471C52.5882 77.6471 56.3824 79.853 60.4412 82.5C64.5882 85.1471 68.3824 87.353 68.8235 87.353C69.3529 87.353 69.7059 87.7059 69.7059 88.2353C69.7059 88.6765 70.0588 89.1177 70.5882 89.1177C71.7353 89.1177 79.4118 94.5883 79.4118 95.3824C79.4118 96 75.1765 100.235 65.4706 109.235L61.6765 112.853L49.5882 104.382C42.9706 99.7941 37.4118 95.6471 37.2353 95.2059C37.0588 94.7647 36.3529 94.4118 35.7353 94.4118C35.1176 94.4118 34.4118 94.0588 34.2353 93.7059C34.1471 93.353 30.0882 90.2647 25.3235 87C20.5588 83.6471 16.4118 80.3824 16.1471 79.7647C15.9706 79.1471 16.5882 77.7353 17.6471 76.5883C18.7059 75.4412 21.3529 72.0883 23.6471 69.0883C25.9412 66.0883 28.5 63.5294 29.2941 63.5294C30.0882 63.5294 35.2941 66.4412 40.7647 69.8824ZM156.353 69.0883C158.647 72.0883 161.294 75.4412 162.353 76.5883C163.412 77.7353 164.029 79.1471 163.765 79.853C163.588 80.4706 160.941 82.6765 158.118 84.6177C155.206 86.5588 152.206 88.7647 151.5 89.5588C150.706 90.2647 149.735 90.8824 149.206 90.8824C148.676 90.8824 148.235 91.2353 148.235 91.7647C148.235 92.2059 147.618 92.6471 146.912 92.6471C146.206 92.6471 145.588 93 145.588 93.5294C145.588 93.9706 145.059 94.4118 144.353 94.4118C143.647 94.4118 142.941 94.7647 142.765 95.2059C142.676 95.6471 137.118 99.7941 130.5 104.382L118.412 112.765L114.618 109.235C105.441 100.853 100.588 96 100.588 95.2941C100.588 94.9412 105.441 91.5 111.441 87.7059C117.353 84 122.382 80.6471 122.647 80.3824C122.912 80.1177 124.324 79.2353 125.735 78.5294C127.235 77.8236 128.559 77.0294 128.824 76.7647C129.971 75.6177 136.853 71.4706 137.647 71.4706C138.088 71.4706 138.529 71.0294 138.529 70.5883C138.529 70.0588 138.971 69.7059 139.412 69.7059C139.941 69.7059 142.235 68.2941 144.529 66.6177C146.824 64.9412 149.471 63.5294 150.441 63.5294C151.588 63.5294 153.706 65.5588 156.353 69.0883ZM39.1765 108.706C43.1471 111.794 49.5882 116.471 53.3824 119.118C57.1765 121.765 60.7941 124.324 61.4118 124.853C62.2941 125.471 64.3235 123.971 69.5294 118.853C73.2353 115.147 76.8529 112.059 77.4706 112.059C78.2647 112.059 78.5294 117.265 78.5294 134.118C78.5294 157.765 78.5294 157.853 74.1176 154.412C72.8824 153.441 71.5588 152.647 71.1176 152.647C70.6765 152.647 69 151.676 67.4118 150.441C65.8235 149.206 64.1471 148.235 63.6176 148.235C63.0882 148.235 62.6471 147.794 62.6471 147.353C62.6471 146.824 62.2941 146.471 61.7647 146.471C61.3235 146.471 58.1471 144.706 54.7941 142.5C51.4412 140.294 48.2647 138.529 47.7353 138.529C47.2059 138.529 46.7647 138.088 46.7647 137.647C46.7647 137.118 46.3235 136.765 45.7941 136.765C45.2647 136.765 42.8823 135.353 40.5882 133.676C38.2941 132 35.9118 130.588 35.3823 130.588C34.8529 130.588 34.4118 130.324 34.4118 129.882C34.4118 129.529 33.5294 128.824 32.4706 128.382C31.2353 127.853 30.1765 126.441 29.9118 124.853C29.1176 121.235 28.9412 104.559 29.7353 103.853C30.7941 102.706 31.7647 103.235 39.1765 108.706Z" fill="#48742C"/>
</g>
<defs>
<clipPath id="clip0_45_118">
<rect width="180" height="180" fill="white"/>
</clipPath>
</defs>
</svg>
