<svg width="240" height="240" viewBox="0 0 240 240" fill="none" xmlns="http://www.w3.org/2000/svg">
<path d="M110 41.9C109.2 42.4 105.9 43.1 102.8 43.4C99.6 43.8 96.8 44.6 96.5 45.1C96.1 45.6 94.6 46 93.1 46C91.5 46 89.7 46.7 89 47.5C88.3 48.3 86.9 49 85.9 49C84.8 49 84 49.4 84 50C84 50.5 83.4 51 82.6 51C81.8 51 80.5 51.6 79.8 52.3C79.1 53 77.8 53.9 77 54.3C76.2 54.7 74.6 55.6 73.5 56.2C71.1 57.8 57 71.5 57 72.4C57 72.7 55.7 74.9 54 77.2C52.4 79.4 51 81.9 51 82.7C51 83.4 50.6 84 50 84C49.5 84 49 84.8 49 85.9C49 86.9 48.3 88.3 47.5 89C46.7 89.7 46 91.4 46 92.9C46 94.4 45.6 96 45 96.6C40.8 100.8 40.8 139.2 45 143.4C45.6 144 46 145.6 46 147.1C46 148.6 46.7 150.3 47.5 151C48.3 151.7 49 153.1 49 154.1C49 155.2 49.4 156 49.9 156C50.4 156 51.1 157.1 51.4 158.5C51.8 159.9 52.5 161 53 161C53.6 161 54 161.6 54 162.2C54.1 166.1 73.9 185.9 77.8 186C78.4 186 79 186.4 79 187C79 187.5 80.1 188.2 81.5 188.6C82.9 188.9 84 189.6 84 190.1C84 190.6 84.8 191 85.9 191C86.9 191 88.3 191.7 89 192.5C89.7 193.3 91.4 194 92.9 194C94.4 194 96 194.4 96.6 194.9C101 199.2 139 199.2 143.4 194.9C144 194.4 145.6 194 147.1 194C148.6 194 150.3 193.3 151 192.5C151.7 191.7 153.1 191 154.1 191C155.2 191 156 190.5 156 190C156 189.4 156.6 189 157.4 189C158.2 189 162.4 186.4 166.7 183.2C175.7 176.4 183.2 168.5 185.7 163C186.1 162.2 187 160.9 187.7 160.2C188.4 159.5 189 158.2 189 157.4C189 156.6 189.5 156 190 156C190.6 156 191 155.2 191 154.1C191 153.1 191.7 151.7 192.5 151C193.3 150.3 194 148.6 194 147.1C194 145.6 194.4 144 194.9 143.5C199.2 139 199.2 101 194.9 96.6C194.4 96 194 94.4 194 92.9C194 91.4 193.3 89.7 192.5 89C191.7 88.3 191 86.9 191 85.9C191 84.8 190.6 84 190.1 84C189.6 84 188.9 82.9 188.6 81.5C188.2 80.1 187.5 79 187 79C186.4 79 186 78.4 186 77.7C185.9 73.6 168.7 56.8 160 52.3C158.1 51.3 156.4 50.2 156.2 49.7C156 49.3 155 49 154 49C153.1 49 151.7 48.3 151 47.5C150.3 46.7 148.6 46 147.1 46C145.6 46 144 45.6 143.5 45.1C140.9 42.7 113.2 40 110 41.9ZM128 72.5C128.9 73.5 129 75.6 128.6 79C128.2 82.3 128.3 84 129 84C131.6 84 138.7 88.1 141.5 91.2C145.6 95.7 147 98.4 147 101.9C147 105.3 145.6 106 139.1 106C134.2 106 131 104.2 129.7 100.7C129.4 99.8 128.4 99 127.5 99C126.7 99 126 98.5 126 98C126 96.3 116.4 96.9 113.1 98.7C110.6 100.2 110 101.1 110 104C110 107.1 110.5 107.7 113.9 109.2C115.9 110.2 118.6 111 119.9 111C121.1 111 123.7 111.7 125.7 112.5C127.6 113.3 130.5 114 132 114C133.6 114 135 114.3 135.2 114.7C135.4 115.2 137.3 116.4 139.4 117.5C141.5 118.6 144.5 121.2 145.9 123.4C148.1 126.7 148.5 128.5 148.4 134.1C148.4 141.1 147.3 143.7 142.1 149.3C139.4 152.3 132.3 156 129.5 156C128.1 156 127.9 156.7 128.5 161C129.5 168 128.4 169 120 169C112.7 169 110.3 167.7 111.5 164.1C111.8 163 111.8 160.5 111.4 158.5C110.9 155.7 110.3 155 108.5 155C102.8 155 93.9 147 92 140.1C90.7 135.2 92 134 99.1 134C104.4 134 105.3 134.3 107.7 137C111.4 141.2 115.5 143 121 143C124.9 143 126.3 142.4 129.5 139.6C133.3 136.4 133.4 136.2 131.8 133.9C129.6 130.5 122.7 127.7 113 126.3C104.9 125.2 98.2 120.5 94.3 113.1C92.8 110.3 92.6 99.4 94 98.5C94.6 98.2 95 97.2 95 96.4C95 92.8 106.4 84 111.1 84C111.9 84 112.1 82.4 111.7 78.6C111.4 75.3 111.6 72.8 112.3 72.1C114 70.4 126.5 70.7 128 72.5Z" fill="#48742C"/>
</svg>
