<svg width="200" height="200" viewBox="0 0 200 200" fill="none" xmlns="http://www.w3.org/2000/svg">
<path d="M96.4532 15.9607C95.0739 17.2414 92.8079 19.803 91.4285 21.7735C89.9507 23.7439 87.3891 25.9114 85.6157 26.6011C82.7586 27.7833 82.0689 27.6848 77.4384 25.3203C71.8226 22.3646 67.8817 21.9705 66.1083 24.0395C65.4187 24.8277 64.532 28.2759 64.0394 31.6257C62.8571 40.0986 59.9014 42.9557 51.33 44.138C41.9704 45.4188 40.5911 48.0789 44.8276 56.5518C46.2069 59.2119 47.2906 62.4631 47.2906 63.6454C47.2906 65.9114 43.4482 70.3449 37.6354 74.8769C35.9606 76.1577 34.2857 77.9311 33.9901 78.6208C33.399 80.1971 36.4532 85.7144 37.931 85.7144C39.3103 85.7144 44.532 90.6405 46.1083 93.3991C47.8817 96.5518 47.5862 98.8178 44.8276 103.547C43.4482 105.911 42.3645 108.769 42.3645 109.951C42.3645 112.906 45.4187 115.271 49.4581 115.271C53.596 115.271 59.0147 117.34 61.2808 119.902C62.1675 120.887 63.3497 124.532 63.9409 127.98C64.532 131.33 65.4187 134.778 66.1083 135.567C67.7832 137.537 73.3005 137.241 77.3399 134.975C81.3793 132.709 83.9409 132.512 86.995 134.187C89.3596 135.37 93.596 139.902 93.596 141.182C93.596 142.66 97.931 145.714 100 145.714C102.069 145.714 106.404 142.66 106.404 141.182C106.404 140 110.542 135.665 113.005 134.187C116.158 132.512 118.621 132.709 122.66 134.975C126.699 137.241 132.217 137.537 133.892 135.567C134.581 134.778 135.468 131.33 136.059 127.98C136.65 124.532 137.832 120.887 138.719 119.902C140.985 117.34 146.404 115.271 150.739 115.271C154.68 115.271 157.635 112.906 157.635 109.754C157.635 108.769 156.552 105.911 155.172 103.547C152.315 98.6208 152.118 96.9459 154.187 93.005C155.566 90.2464 160.591 85.7144 162.266 85.7144C163.645 85.7144 166.601 80.0986 166.01 78.6208C165.714 77.9311 164.039 76.1577 162.365 74.8769C156.552 70.3449 152.709 65.9114 152.709 63.6454C152.709 62.4631 153.793 59.2119 155.172 56.5518C159.409 48.0789 158.03 45.4188 148.67 44.138C140.098 42.9557 137.143 40.0986 135.961 31.6257C135.468 28.2759 134.581 24.8277 133.892 24.0395C132.118 21.9705 128.177 22.3646 122.562 25.3203C117.931 27.6848 117.241 27.7833 114.384 26.6011C112.611 25.9114 110.049 23.7439 108.571 21.7735C105.32 17.34 101.576 13.7932 100 13.7932C99.3103 13.7932 97.734 14.7784 96.4532 15.9607ZM131.724 61.2809C133.202 62.6602 133.99 64.5321 133.99 66.7981C133.99 69.8523 132.512 71.7242 119.507 84.9262C104.828 99.9015 98.4236 105.419 95.862 105.419C95.0739 105.419 89.5566 100.69 83.6453 94.8769C73.6946 85.2217 72.9064 84.138 72.9064 80.6897C72.9064 77.6355 73.4975 76.5518 75.862 74.8769C80.0985 71.9212 82.6601 72.8079 89.5566 79.803C92.7093 83.0543 95.665 85.7144 96.1576 85.7144C96.6502 85.7144 103.054 79.7045 110.345 72.4139C124.828 57.9311 126.995 56.8474 131.724 61.2809Z" fill="#48742C"/>
<path d="M50.5419 145.025C49.9507 146.305 48.9655 148.571 48.2759 150.246C47.5862 151.823 46.6995 153.99 46.2069 154.877C45.7143 155.862 45.3202 157.044 45.3202 157.636C45.3202 158.522 41.2808 167.98 39.2118 171.724C38.7192 172.808 38.4236 173.793 38.6207 173.99C38.9162 174.187 41.6749 173.892 44.9261 173.399C48.0788 172.808 53.6946 172.414 57.2414 172.414C63.3497 172.414 63.8424 172.611 66.2069 175.567C67.6847 177.34 69.7537 179.902 70.936 181.281C72.1182 182.66 74.2857 185.222 75.5665 186.995C76.9458 188.67 78.6207 190.148 79.3103 190.148C80 190.148 81.2808 188.079 82.1675 185.419C84.6305 178.621 85.0246 177.833 91.8227 162.857C92.9064 160.591 92.2167 158.621 90.2463 158.621C89.6552 158.621 87.1921 156.65 84.8276 154.286C81.6749 151.035 80.0985 150.148 78.9162 150.739C73.399 153.498 71.8227 153.892 69.2611 153.301C67.7832 152.906 65.2217 152.315 63.6453 152.02C62.1675 151.724 58.8177 149.557 56.3547 147.192C53.8916 144.828 51.8227 142.857 51.7241 142.857C51.6256 142.857 51.133 143.842 50.5419 145.025Z" fill="#48742C"/>
<path d="M143.153 147.291C140.985 149.557 137.832 151.724 136.256 152.02C134.778 152.315 132.217 152.906 130.739 153.301C128.177 153.892 126.601 153.498 121.084 150.739C119.901 150.148 118.325 151.035 115.172 154.286C112.808 156.65 110.345 158.621 109.754 158.621C107.783 158.621 107.094 160.591 108.177 162.857C114.975 177.833 115.369 178.621 117.832 185.419C118.719 188.079 120 190.148 120.69 190.148C121.379 190.148 123.054 188.67 124.433 186.897C125.714 185.222 127.882 182.66 129.064 181.281C130.246 179.902 132.315 177.34 133.793 175.567C136.158 172.611 136.65 172.414 142.759 172.414C146.305 172.414 151.921 172.808 155.074 173.399C158.325 173.892 161.084 174.187 161.379 173.99C161.576 173.793 161.281 172.808 160.788 171.724C158.719 167.98 154.68 158.522 154.68 157.636C154.68 157.044 154.286 155.862 153.793 154.877C153.3 153.99 152.512 152.118 152.02 150.739C150.148 146.01 148.473 142.857 147.882 143.054C147.586 143.054 145.419 145.025 143.153 147.291Z" fill="#48742C"/>
</svg>
