<svg width="197" height="197" viewBox="0 0 197 197" fill="none" xmlns="http://www.w3.org/2000/svg">
<g clip-path="url(#clip0_35_31)">
<path fill-rule="evenodd" clip-rule="evenodd" d="M98.5 178.531C112.55 178.552 126.355 174.856 138.516 167.819V141.594C138.516 134.246 135.597 127.2 130.402 122.005C125.206 116.809 118.16 113.891 110.812 113.891H86.1875C78.8402 113.891 71.7938 116.809 66.5984 122.005C61.4031 127.2 58.4844 134.246 58.4844 141.594V167.819C70.6449 174.856 84.4502 178.552 98.5 178.531ZM156.984 141.594V153.131C167.631 141.733 174.715 127.473 177.367 112.103C180.018 96.7335 178.12 80.9241 171.907 66.6183C165.694 52.3126 155.436 40.134 142.395 31.5796C129.353 23.0253 114.097 18.468 98.5 18.468C82.9033 18.468 67.6465 23.0253 54.6051 31.5796C41.5636 40.134 31.3059 52.3126 25.0929 66.6183C18.8798 80.9241 16.9823 96.7335 19.6334 112.103C22.2846 127.473 29.369 141.733 40.0156 153.131V141.594C40.012 132.074 42.951 122.786 48.4305 115.001C53.9099 107.216 61.6617 101.315 70.6245 98.106C65.9751 92.7582 62.9622 86.1859 61.945 79.173C60.9278 72.1602 61.9494 65.0027 64.8878 58.5544C67.8262 52.106 72.5575 46.639 78.5172 42.8054C84.477 38.9719 91.4137 36.9335 98.5 36.9335C105.586 36.9335 112.523 38.9719 118.483 42.8054C124.443 46.639 129.174 52.106 132.112 58.5544C135.051 65.0027 136.072 72.1602 135.055 79.173C134.038 86.1859 131.025 92.7582 126.375 98.106C135.338 101.315 143.09 107.216 148.57 115.001C154.049 122.786 156.988 132.074 156.984 141.594ZM98.5 197C124.624 197 149.678 186.622 168.15 168.15C186.622 149.678 197 124.624 197 98.5C197 72.3762 186.622 47.3223 168.15 28.85C149.678 10.3777 124.624 0 98.5 0C72.3762 0 47.3223 10.3777 28.85 28.85C10.3777 47.3223 0 72.3762 0 98.5C0 124.624 10.3777 149.678 28.85 168.15C47.3223 186.622 72.3762 197 98.5 197ZM116.969 73.875C116.969 78.7732 115.023 83.4708 111.559 86.9344C108.096 90.3979 103.398 92.3438 98.5 92.3438C93.6018 92.3438 88.9042 90.3979 85.4406 86.9344C81.9771 83.4708 80.0312 78.7732 80.0312 73.875C80.0312 68.9768 81.9771 64.2792 85.4406 60.8156C88.9042 57.3521 93.6018 55.4062 98.5 55.4062C103.398 55.4062 108.096 57.3521 111.559 60.8156C115.023 64.2792 116.969 68.9768 116.969 73.875Z" fill="white"/>
</g>
<defs>
<clipPath id="clip0_35_31">
<rect width="197" height="197" fill="white"/>
</clipPath>
</defs>
</svg>
